<svg id="Layer_1" data-name="Layer 1" xmlns="http://www.w3.org/2000/svg" viewBox="0 0 520.54 117.14"><title>logo</title><path d="M819.58,575.46q.79-1.44,1.66-1.44a2.39,2.39,0,0,1,1.51.5,7.3,7.3,0,0,1,1.51,1.8,14.73,14.73,0,0,1-3,4.18,15.89,15.89,0,0,1-4.43,2.84,16.82,16.82,0,0,1-6.95,1.26,26.49,26.49,0,0,1-8.5-1.51,23.51,23.51,0,0,1-8.17-4.82,25.68,25.68,0,0,1-6.12-8.53,30,30,0,0,1-2.41-12.64A43,43,0,0,1,786,546.84a78.23,78.23,0,0,1,3.17-10q1.91-4.86,4.21-9.36t4.39-8.39v.07q2.38-4.39,4-7.7a12.72,12.72,0,0,0,1.66-5q0-1.3-1.69-.25a29,29,0,0,0-4.39,3.64q-2.7,2.59-6.12,6.3t-6.88,7.7q-3.46,4-6.62,7.88t-5.4,6.91l-1.3,1.58-.14.22q-1.8,3.67-3.42,7.24t-2.88,6.55q-1.26,3-2,5.22a12.16,12.16,0,0,0-.72,3.38,14,14,0,0,0,.14,2.23,6.1,6.1,0,0,0,.36,1.37,2.48,2.48,0,0,0,.5.79,3.39,3.39,0,0,0,.5.43,6,6,0,0,1,.94,1,2.6,2.6,0,0,1,.36,1.51q0,.43-.94.61a6.79,6.79,0,0,1-2.38-.07,15,15,0,0,1-3.1-.94,10.42,10.42,0,0,1-5.47-5.36,11.56,11.56,0,0,1-.94-4.9,25,25,0,0,1,1.4-7.16q1.4-4.43,3.64-9.65t4.93-10.91q2.7-5.69,5.29-10.94,1.73-3.67,3.35-7t2.84-6q1.22-2.7,1.94-4.64a9.47,9.47,0,0,0,.72-2.74,1,1,0,0,1,.07-.5q-1.23.07-3.53,1.91a61.08,61.08,0,0,0-5.22,4.79q-2.92,3-6.23,6.73T754.6,521q-3.21,3.89-6.12,7.52t-5,6.37q-2.09,4.25-4,8.35T736,550.94q-1.51,3.64-2.45,6.59a16.74,16.74,0,0,0-.94,4.82,13.62,13.62,0,0,0,.25,3.2,6.3,6.3,0,0,0,.54,1.4q.29.5.54,1a3.35,3.35,0,0,1,.25,1.4,2.71,2.71,0,0,1-.83,2.16,3.35,3.35,0,0,1-2.27.72,6,6,0,0,1-2.77-.83,10.11,10.11,0,0,1-3-2.52,14.78,14.78,0,0,1-2.38-4.28,17.65,17.65,0,0,1-1-6.19,18.09,18.09,0,0,1,1-5.26q1-3.24,2.74-7.38t3.92-8.93l4.61-9.9q2.66-5.62,5.26-11.23t4.64-10.69q2.05-5.08,3.35-9.25a24.18,24.18,0,0,0,1.3-6.84q0-2.81-1.8-2.81a15.6,15.6,0,0,0-7.34,2.09,40.92,40.92,0,0,0-7.74,5.51,62.65,62.65,0,0,0-7.38,7.85,77.12,77.12,0,0,0-6.23,9,56,56,0,0,0-4.32,9,23.46,23.46,0,0,0-1.62,8,43.27,43.27,0,0,0,.32,5.8,23.09,23.09,0,0,0,.83,3.89,14.09,14.09,0,0,0,1,2.45,8.8,8.8,0,0,0,.94,1.4c.24.38.47.73.68,1a2.18,2.18,0,0,1,.32,1.26,1.76,1.76,0,0,1-.9,1.48,4.37,4.37,0,0,1-2.48.61,11.6,11.6,0,0,1-3.85-.83,11.42,11.42,0,0,1-4.36-3.06,18.48,18.48,0,0,1-3.56-6.12,28.61,28.61,0,0,1-1.48-10,29.28,29.28,0,0,1,2-10.37,44.55,44.55,0,0,1,5.44-10.12,57,57,0,0,1,8.17-9.14,58.61,58.61,0,0,1,10.15-7.42,55.33,55.33,0,0,1,11.41-5,40.5,40.5,0,0,1,12-1.84,10.94,10.94,0,0,1,4.5.83,8.73,8.73,0,0,1,3,2.12,9.45,9.45,0,0,1,1.76,2.88,14.13,14.13,0,0,1,.83,3.13,26.26,26.26,0,0,1,.25,2.84q0,1.3,0,1.94a25.57,25.57,0,0,1-1.48,7.63q-1.48,4.54-3.78,9.94,3.46-4,7.06-7.78a84.43,84.43,0,0,1,7.09-6.62A41.18,41.18,0,0,1,775,494a12.85,12.85,0,0,1,6-1.73,7.19,7.19,0,0,1,5.58,2.16q2,2.16,2,7.06A9,9,0,0,1,788,504q-.54,1.66-1.51,3.92T784.23,513q-1.3,2.81-2.81,5.9,3.38-3.82,6.84-7.24a84.48,84.48,0,0,1,6.66-6,39.89,39.89,0,0,1,6-4.07,10.89,10.89,0,0,1,4.93-1.51,9.92,9.92,0,0,1,4.21.79,7.4,7.4,0,0,1,2.74,2.12,8.08,8.08,0,0,1,1.48,3.06,14.5,14.5,0,0,1,.43,3.53,15.93,15.93,0,0,1-2.09,6.84q-2.09,4.1-5,9.07-2.09,3.67-4.32,7.81t-4.1,8.57a71.06,71.06,0,0,0-3.1,8.89,33.11,33.11,0,0,0-1.22,8.78,22.32,22.32,0,0,0,1.8,9.65,17.51,17.51,0,0,0,4.36,5.9,14.8,14.8,0,0,0,5.36,3,17.52,17.52,0,0,0,4.82.83,11,11,0,0,0,5.76-1.19A7.32,7.32,0,0,0,819.58,575.46Zm140.87-39.17a3.74,3.74,0,0,0-1.33-.9,4.25,4.25,0,0,0-1.62-.32,1.13,1.13,0,0,0-1.12.58q-.58,1.15-2,3.53t-3.31,5.36q-1.91,3-4.1,6.12t-4.28,5.72a42.17,42.17,0,0,1-3.85,4.25q-1.77,1.66-2.84,1.66s-.07,0-.07-.14v-.5a11.83,11.83,0,0,1,.7-3.46q.71-2.16,1.8-4.75t2.43-5.33l2.56-5.26,2.88-6.16a10.74,10.74,0,0,0,1.22-3.71,5.75,5.75,0,0,0-.83-2.88,11.61,11.61,0,0,0-2-2.56,12.7,12.7,0,0,0-2.38-1.84,3.71,3.71,0,0,0-2.09-.65,6.17,6.17,0,0,0-2.33,1.44,44.15,44.15,0,0,0-3.49,3.35q-2,2.05-4.18,4.61t-4.39,5.22v-.07l.58-1.08q2.16-4.39,4.32-8.71t3.82-8.1q1.66-3.78,2.74-6.84a15.77,15.77,0,0,0,1.08-4.93,4.14,4.14,0,0,0-1.62-3,15.42,15.42,0,0,0-3.6-2.45,10.43,10.43,0,0,0-3.6-1.12q-1.62-.14-1.62,1a14.68,14.68,0,0,1-.94,4.36q-.94,2.77-2.45,6.3t-3.46,7.63q-1.94,4.1-4,8.28t-4.07,8.5q-2,4.18-3.53,7.85-.74,1.75-1.34,3.34a48.57,48.57,0,0,1-5,5.26,28.19,28.19,0,0,1-5.9,4.18,13.66,13.66,0,0,1-6.41,1.62,2,2,0,0,1-1.87-1,5.53,5.53,0,0,1-.58-2.69,21.8,21.8,0,0,1,.76-5.28,41.69,41.69,0,0,1,2.09-6.11,66.46,66.46,0,0,1,3-6.18,42.37,42.37,0,0,1,3.53-5.42,20.22,20.22,0,0,1,3.74-3.81,6.06,6.06,0,0,1,3.56-1.44c.19,0,.31.16.36.47a8.15,8.15,0,0,1,.07,1.19,13.9,13.9,0,0,1-.22,2.34q-.22,1.26-.5,2.34-.29,1.3-.65,2.45v-.07a.82.82,0,0,0,.36,1,3.58,3.58,0,0,0,1.44.61,4.27,4.27,0,0,0,1.66,0,1.2,1.2,0,0,0,1-.72v-.07s0-.07,0-.07,0,0,0-.07l.9-3.13a15.93,15.93,0,0,0,.61-4.43A8.47,8.47,0,0,0,909,527q-1.26-2-4.79-2A23.46,23.46,0,0,0,894,527.4a33.38,33.38,0,0,0-9,6.34,32.78,32.78,0,0,0-6.44,8.86,24.71,24.71,0,0,0-1.49,3.72c-1,1.42-2,2.86-3.08,4.35q-2.34,3.13-4.72,5.72a30,30,0,0,1-4.72,4.25,7.69,7.69,0,0,1-4.36,1.66q-1.08,0-1.08-1.73a17.7,17.7,0,0,1,1-5q1-3.09,2.52-6.84t3.49-8Q868,536.5,870,532.4q.72-1.44,1.4-2.88t1.33-2.88a46.69,46.69,0,0,0,9.22-.79,34.54,34.54,0,0,0,6.37-1.84,13.07,13.07,0,0,0,3.67-2.12q1.19-1.08,1.19-1.66a1.29,1.29,0,0,0-1.3-1.48,11.85,11.85,0,0,0-3.6.47l.07-.07q-2.09.58-5.44,1.15a56.24,56.24,0,0,1-7.6.72q1.66-3.67,2.63-6.52a14.91,14.91,0,0,0,1-4.5,4.44,4.44,0,0,0-1.44-3,12.55,12.55,0,0,0-3.2-2.45,8.89,8.89,0,0,0-3.2-1.08q-1.44-.14-1.44,1a20.4,20.4,0,0,1-1.69,6.16q-1.69,4.36-4.28,10-3.53-.36-6.12-.83t-4.25-.83l-2.45-.5a4.59,4.59,0,0,0-1.66-.11,1.4,1.4,0,0,0-1,.58,2.64,2.64,0,0,0-.32,1.48q0,.43.9,1.19a12.05,12.05,0,0,0,2.59,1.55,31.82,31.82,0,0,0,4.18,1.55,42.24,42.24,0,0,0,5.65,1.26l-1.51,3.24q-2,4.32-4,8.6c-.5,1.08-1,2.12-1.43,3.15s-1.16,2.2-1.81,3.41q-1.62,3-3.46,6.16t-3.63,5.8a39.55,39.55,0,0,1-3.34,4.32q-1.55,1.69-2.55,1.69s.07-.12.07-.36a9.37,9.37,0,0,1,.4-2.38q.39-1.44,1-3.1t1.36-3.38q.75-1.73,1.47-3.31,1-2.3,1.76-4.1a7.9,7.9,0,0,0,.75-2.59,2.11,2.11,0,0,0-.72-1.33,9.48,9.48,0,0,0-1.79-1.44,15.64,15.64,0,0,0-2.36-1.22,18.77,18.77,0,0,0-2.36-.83,4,4,0,0,0-1.79-.14.76.76,0,0,0-.71.79,11.4,11.4,0,0,1-.65,2.66q-.65,2-1.8,4.68t-2.66,5.62a41.82,41.82,0,0,1-3.28,5.4,22.4,22.4,0,0,1-3.64,4,5.75,5.75,0,0,1-3.67,1.58q-1.51,0-1.51-2.59a18.78,18.78,0,0,1,.83-5,51.06,51.06,0,0,1,2.16-6,53.51,53.51,0,0,1,3.13-6.19,45.38,45.38,0,0,1,3.74-5.47,23.26,23.26,0,0,1,3.92-3.92,6.25,6.25,0,0,1,3.71-1.51,5,5,0,0,1,2.56.54,3.57,3.57,0,0,1,1.3,1.22,3,3,0,0,1,.43,1.33,2.21,2.21,0,0,1,0,.79q-.07.22.47.61a4.9,4.9,0,0,0,1.22.65,4.6,4.6,0,0,0,1.37.29.81.81,0,0,0,.9-.54H845a4.37,4.37,0,0,0,.29-1.51,9.7,9.7,0,0,0-.18-2.41,12.47,12.47,0,0,0-.9-2.77,8.54,8.54,0,0,0-1.87-2.63,9.42,9.42,0,0,0-3.13-1.94,12.64,12.64,0,0,0-4.64-.76,16.62,16.62,0,0,0-6.34,1.3,27.27,27.27,0,0,0-6.08,3.49,35.09,35.09,0,0,0-5.44,5.11,38.16,38.16,0,0,0-4.36,6.16,33.73,33.73,0,0,0-2.88,6.59,21.64,21.64,0,0,0-1,6.44,17.46,17.46,0,0,0,.76,5,15.81,15.81,0,0,0,2.2,4.57,11.43,11.43,0,0,0,3.56,3.31,9.48,9.48,0,0,0,4.93,1.26,6.83,6.83,0,0,0,2.9-.68,15.17,15.17,0,0,0,2.8-1.69,23.76,23.76,0,0,0,2.47-2.16q1.15-1.15,2-2.16a12.76,12.76,0,0,0,2.16,3.38,13.58,13.58,0,0,0,2.62,2.27,6.32,6.32,0,0,0,3.63,1,6.57,6.57,0,0,0,4.1-1.91,34.93,34.93,0,0,0,4.57-4.86c.61-.76,1.21-1.57,1.8-2.4a10,10,0,0,0,.82,2.69,12,12,0,0,0,2.52,3.53,11.37,11.37,0,0,0,3.2,2.2,7.49,7.49,0,0,0,3,.76,12.54,12.54,0,0,0,6.37-1.87,32.25,32.25,0,0,0,6.23-4.82,60.61,60.61,0,0,0,5.33-6,20.29,20.29,0,0,0,.53,2.24,16.58,16.58,0,0,0,2.56,5.08,14.18,14.18,0,0,0,4.32,3.85,11.93,11.93,0,0,0,6.12,1.51,17,17,0,0,0,7.7-1.87,33.23,33.23,0,0,0,7.13-4.86c.5-.44,1-.9,1.48-1.37a9,9,0,0,0,.68,2.45,10.82,10.82,0,0,0,2,3,8.63,8.63,0,0,0,2.66,1.94,6.88,6.88,0,0,0,2.92.68,3.39,3.39,0,0,0,1.69-.32,1.42,1.42,0,0,0,.68-.86,2.8,2.8,0,0,0,0-1.26q-.15-.72-.36-1.58l.07.07a2.56,2.56,0,0,1-.11-.5,2.76,2.76,0,0,0-.11-.5l-.14-.58a6,6,0,0,1,.22-1.37,29.63,29.63,0,0,1,2.74-4.64Q921,554,923.34,551t4.88-6.16q2.58-3.13,4.93-5.87l-2.47,5.54q-1.25,2.81-2.25,5.44t-1.61,4.86a14.76,14.76,0,0,0-.61,3.74,10.42,10.42,0,0,0,2.29,7.09,7.34,7.34,0,0,0,5.79,2.63,8.42,8.42,0,0,0,4.7-1.87,34.26,34.26,0,0,0,5.33-4.82,76.78,76.78,0,0,0,5.33-6.55q2.63-3.6,4.9-7t3.89-6.26q1.62-2.84,2.34-4.28A1.07,1.07,0,0,0,960.45,536.29Zm114.73-30.17a8.08,8.08,0,0,0-1.48-3.06,7.4,7.4,0,0,0-2.74-2.12,9.93,9.93,0,0,0-4.21-.79,10.88,10.88,0,0,0-4.93,1.51,39.86,39.86,0,0,0-6,4.07,84.31,84.31,0,0,0-6.66,6q-3.46,3.42-6.84,7.24,1.51-3.1,2.81-5.9t2.27-5.08q1-2.27,1.51-3.92a8.93,8.93,0,0,0,.54-2.52q0-4.9-2-7.06a7.19,7.19,0,0,0-5.58-2.16,12.85,12.85,0,0,0-6,1.73,41.14,41.14,0,0,0-6.73,4.61,84.51,84.51,0,0,0-7.09,6.62q-3.6,3.74-7.06,7.78,2.3-5.4,3.78-9.94a25.56,25.56,0,0,0,1.48-7.63q0-.65,0-1.94a25.9,25.9,0,0,0-.25-2.84,14.11,14.11,0,0,0-.83-3.13,9.43,9.43,0,0,0-1.76-2.88,8.73,8.73,0,0,0-3-2.12,10.93,10.93,0,0,0-4.5-.83,40.49,40.49,0,0,0-12,1.84,55.31,55.31,0,0,0-11.41,5,58.59,58.59,0,0,0-10.15,7.42,57,57,0,0,0-8.17,9.14,44.55,44.55,0,0,0-5.44,10.12,29.28,29.28,0,0,0-2,10.37,28.61,28.61,0,0,0,1.48,10,18.48,18.48,0,0,0,3.56,6.12,11.42,11.42,0,0,0,4.36,3.06,11.6,11.6,0,0,0,3.85.83,4.37,4.37,0,0,0,2.48-.61,1.76,1.76,0,0,0,.9-1.48,2.18,2.18,0,0,0-.32-1.26c-.22-.31-.44-.66-.68-1a8.8,8.8,0,0,1-.94-1.4,14.09,14.09,0,0,1-1-2.45,23.09,23.09,0,0,1-.83-3.89,43.27,43.27,0,0,1-.32-5.8,23.46,23.46,0,0,1,1.62-8,56,56,0,0,1,4.32-9,77.07,77.07,0,0,1,6.23-9,62.62,62.62,0,0,1,7.38-7.85,40.93,40.93,0,0,1,7.74-5.51,15.6,15.6,0,0,1,7.34-2.09q1.8,0,1.8,2.81a24.17,24.17,0,0,1-1.3,6.84q-1.3,4.18-3.35,9.25t-4.64,10.69q-2.59,5.62-5.26,11.23l-4.61,9.9q-2.23,4.79-3.92,8.93t-2.74,7.38a18.09,18.09,0,0,0-1,5.26,17.64,17.64,0,0,0,1,6.19,14.76,14.76,0,0,0,2.38,4.28,10.09,10.09,0,0,0,3,2.52,6,6,0,0,0,2.77.83,3.35,3.35,0,0,0,2.27-.72,2.71,2.71,0,0,0,.83-2.16,3.34,3.34,0,0,0-.25-1.4q-.25-.54-.54-1a6.32,6.32,0,0,1-.54-1.4,13.68,13.68,0,0,1-.25-3.2,16.73,16.73,0,0,1,.94-4.82q.93-3,2.45-6.59t3.46-7.74q1.94-4.1,4-8.35,2.09-2.73,5-6.37t6.12-7.52q3.2-3.89,6.52-7.67t6.23-6.73a61.16,61.16,0,0,1,5.22-4.79q2.3-1.84,3.53-1.91a1,1,0,0,0-.07.5,9.47,9.47,0,0,1-.72,2.74q-.72,1.94-1.94,4.64t-2.84,6q-1.62,3.35-3.35,7-2.59,5.26-5.29,10.94t-4.93,10.91q-2.23,5.22-3.64,9.65a25,25,0,0,0-1.4,7.16,11.57,11.57,0,0,0,.94,4.9,10.42,10.42,0,0,0,5.47,5.36,15,15,0,0,0,3.1.94,6.79,6.79,0,0,0,2.38.07q.93-.18.94-.61a2.6,2.6,0,0,0-.36-1.51,6,6,0,0,0-.94-1,3.44,3.44,0,0,1-.5-.43,2.48,2.48,0,0,1-.5-.79,6.08,6.08,0,0,1-.36-1.37,14,14,0,0,1-.14-2.23,12.15,12.15,0,0,1,.72-3.38q.72-2.23,2-5.22t2.88-6.55q1.62-3.56,3.42-7.24l.14-.22,1.3-1.58q2.23-3,5.4-6.91t6.62-7.88q3.46-4,6.88-7.7t6.12-6.3a29,29,0,0,1,4.39-3.64q1.69-1,1.69.25a12.72,12.72,0,0,1-1.66,5q-1.66,3.31-4,7.7v-.07q-2.09,3.89-4.39,8.39t-4.21,9.36a78.08,78.08,0,0,0-3.17,10,43,43,0,0,0-1.26,10.26c0,3.8-.07,3.49.29,5.26.11.73.25,1.45.41,2.09l0,.24h0c0,.18.09.35.14.51.43,1.42,1,1.61,1.94,2.5a10.42,10.42,0,0,0,3.1,2,15,15,0,0,0,3.1.94,6.79,6.79,0,0,0,2.38.07q.93-.18.94-.61a2.6,2.6,0,0,0-.36-1.51,5.36,5.36,0,0,1-.85-1.65,26,26,0,0,1-.93-7.35,33.11,33.11,0,0,1,1.22-8.78,70.91,70.91,0,0,1,3.1-8.89q1.87-4.43,4.1-8.57t4.32-7.81q2.88-5,5-9.07a15.93,15.93,0,0,0,2.09-6.84A14.5,14.5,0,0,0,1075.18,506.12ZM1220.33,535a2,2,0,0,0-1.15-1.26,2.51,2.51,0,0,0-1.8.11,3.54,3.54,0,0,0-1.73,1.69q-.58,1.15-1.87,3.53t-3.17,5.29a71.52,71.52,0,0,1-4.32,6,48.74,48.74,0,0,1-5.26,5.62,28.21,28.21,0,0,1-5.9,4.18,13.66,13.66,0,0,1-6.41,1.62,2,2,0,0,1-1.87-1,5.53,5.53,0,0,1-.58-2.69,21.81,21.81,0,0,1,.76-5.28,41.74,41.74,0,0,1,2.09-6.11,66.7,66.7,0,0,1,3-6.18,42.53,42.53,0,0,1,3.53-5.42,20.21,20.21,0,0,1,3.74-3.81,6.06,6.06,0,0,1,3.56-1.44q.29,0,.36.47a8.22,8.22,0,0,1,.07,1.19,14,14,0,0,1-.22,2.34q-.22,1.26-.5,2.34-.29,1.3-.65,2.45v-.07a.82.82,0,0,0,.36,1,3.57,3.57,0,0,0,1.44.61,4.27,4.27,0,0,0,1.66,0,1.19,1.19,0,0,0,1-.72v-.07s0-.07,0-.07,0,0,0-.07l.9-3.13a15.93,15.93,0,0,0,.61-4.43,8.47,8.47,0,0,0-1.26-4.65q-1.26-2-4.79-2a23.46,23.46,0,0,0-10.22,2.41,33.38,33.38,0,0,0-9,6.34,32.78,32.78,0,0,0-6.44,8.86,24.06,24.06,0,0,0-1.84,5c-.61,1-1.24,2-1.9,3a69,69,0,0,1-4.21,5.76,33.87,33.87,0,0,1-4.1,4.28,5.8,5.8,0,0,1-3.56,1.69q-.22,0-.22-.65a11.9,11.9,0,0,1,.72-3.42q.72-2.2,1.84-4.79t2.45-5.4l2.48-5.26q.72-1.51,1.44-3.06t1.3-2.88q.57-1.33.94-2.34A5.06,5.06,0,0,0,1172,533a4.51,4.51,0,0,0-1.44-3.1,12.79,12.79,0,0,0-3.17-2.45,8,8,0,0,0-3.17-1q-1.44-.11-1.44,1a12.3,12.3,0,0,1-1.22,3.53q-1.22,2.74-3,6.41l-1.24,2.69a44.64,44.64,0,0,1-3.44,4.11,104.55,104.55,0,0,1-9.22,8.6q1-2.66,1.66-4.93a13.72,13.72,0,0,0,.65-3.28,6.1,6.1,0,0,0-.79-2.81,12.36,12.36,0,0,0-1.94-2.74q1-.22,1.87-2a8.42,8.42,0,0,0,.22-1.58,9.72,9.72,0,0,0-.18-2.41,10.93,10.93,0,0,0-.94-2.74,9.28,9.28,0,0,0-1.91-2.59,9.48,9.48,0,0,0-3.1-1.94,12.34,12.34,0,0,0-4.61-.76,17.05,17.05,0,0,0-6.44,1.3,27,27,0,0,0-6.12,3.49,35.08,35.08,0,0,0-5.44,5.11,37.42,37.42,0,0,0-4.36,6.19,34.29,34.29,0,0,0-2.88,6.66,24.72,24.72,0,0,0-.69,2.86q-1.78,3.05-3.52,5.6a39.61,39.61,0,0,1-3.34,4.32q-1.55,1.69-2.55,1.69s.07-.12.07-.36a9.35,9.35,0,0,1,.4-2.38q.39-1.44,1-3.1t1.36-3.38q.75-1.73,1.47-3.31,1-2.3,1.76-4.1a7.9,7.9,0,0,0,.75-2.59,2.11,2.11,0,0,0-.72-1.33,9.47,9.47,0,0,0-1.79-1.44,15.64,15.64,0,0,0-2.36-1.22,18.79,18.79,0,0,0-2.36-.83,4,4,0,0,0-1.79-.14.76.76,0,0,0-.71.79,11.38,11.38,0,0,1-.65,2.66q-.65,2-1.8,4.68t-2.66,5.62a41.77,41.77,0,0,1-3.28,5.4,22.38,22.38,0,0,1-3.64,4,5.75,5.75,0,0,1-3.67,1.58q-1.51,0-1.51-2.59a18.76,18.76,0,0,1,.83-5,51,51,0,0,1,2.16-6,53.36,53.36,0,0,1,3.13-6.19,45.38,45.38,0,0,1,3.74-5.47,23.28,23.28,0,0,1,3.92-3.92,6.24,6.24,0,0,1,3.71-1.51,5,5,0,0,1,2.56.54,3.57,3.57,0,0,1,1.3,1.22,3,3,0,0,1,.43,1.33,2.21,2.21,0,0,1,0,.79q-.07.22.47.61a4.88,4.88,0,0,0,1.22.65,4.6,4.6,0,0,0,1.37.29.81.81,0,0,0,.9-.54h-.07a4.4,4.4,0,0,0,.29-1.51,9.68,9.68,0,0,0-.18-2.41,12.42,12.42,0,0,0-.9-2.77,8.54,8.54,0,0,0-1.87-2.63,9.41,9.41,0,0,0-3.13-1.94,12.64,12.64,0,0,0-4.64-.76,16.63,16.63,0,0,0-6.34,1.3,27.28,27.28,0,0,0-6.08,3.49,35.14,35.14,0,0,0-5.44,5.11,38.22,38.22,0,0,0-4.36,6.16,33.73,33.73,0,0,0-2.88,6.59,21.64,21.64,0,0,0-1,6.44,17.46,17.46,0,0,0,.76,5,15.8,15.8,0,0,0,2.2,4.57,11.44,11.44,0,0,0,3.56,3.31,9.48,9.48,0,0,0,4.93,1.26,6.82,6.82,0,0,0,2.9-.68,15.14,15.14,0,0,0,2.8-1.69,23.81,23.81,0,0,0,2.47-2.16q1.15-1.15,2-2.16a12.73,12.73,0,0,0,2.16,3.38,13.59,13.59,0,0,0,2.62,2.27,6.32,6.32,0,0,0,3.63,1,6.57,6.57,0,0,0,4.1-1.91,34.93,34.93,0,0,0,4.57-4.86c.68-.85,1.35-1.76,2-2.7,0,.18.09.36.14.54a15.79,15.79,0,0,0,2.2,4.57,11.43,11.43,0,0,0,3.56,3.31,9.48,9.48,0,0,0,4.93,1.26,7.19,7.19,0,0,0,2.81-.58,13.39,13.39,0,0,0,2.74-1.58l-.36.79q-5,3.6-9.61,6.91t-8.06,6.3a40.06,40.06,0,0,0-5.54,5.62,8.14,8.14,0,0,0-2.05,4.86,7.5,7.5,0,0,0,.5,2.48,7,7,0,0,0,1.76,2.63,10.39,10.39,0,0,0,3.42,2.09,14.86,14.86,0,0,0,5.47.86,9.14,9.14,0,0,0,4.86-1.62,28.47,28.47,0,0,0,5.18-4.36,56.88,56.88,0,0,0,5.22-6.37q2.59-3.64,5-7.7t4.64-8.32q2.2-4.25,4-8.21,4-3.17,7.7-6.37,1.83-1.56,3.51-3.11c-.19.58-.39,1.16-.56,1.71a14.94,14.94,0,0,0-.72,4,10.48,10.48,0,0,0,2.27,7.09,7.39,7.39,0,0,0,5.87,2.63,10.13,10.13,0,0,0,5.58-1.87,30.39,30.39,0,0,0,5.54-4.79,59.88,59.88,0,0,0,4.3-5.24c.11.48.23,1,.38,1.46a16.59,16.59,0,0,0,2.56,5.08,14.19,14.19,0,0,0,4.32,3.85,11.93,11.93,0,0,0,6.12,1.51,17,17,0,0,0,7.7-1.87,33.23,33.23,0,0,0,7.13-4.86,52.52,52.52,0,0,0,6.26-6.59q2.88-3.6,5.15-7t3.82-6.3q1.55-2.88,2.27-4.32A3,3,0,0,0,1220.33,535ZM1118.6,581a54.29,54.29,0,0,1-4.43,5.83,24,24,0,0,1-4.36,4,7.36,7.36,0,0,1-4.1,1.48q-1.08,0-1.08-1.15a5.17,5.17,0,0,1,1.44-3,35.33,35.33,0,0,1,3.92-4q2.48-2.2,5.83-4.79t7.16-5.47Q1120.83,577.69,1118.6,581Zm23.62-44.82a1.37,1.37,0,0,0-.07,1,4.47,4.47,0,0,0-2.45-.86,2.79,2.79,0,0,0-2.2.94,4.92,4.92,0,0,0-.83,3.24v.29q-.15.72-.4,1.69l-.54,2.05v-.07a56.81,56.81,0,0,1-2.38,5.72,49.12,49.12,0,0,1-3.38,6,27.29,27.29,0,0,1-4,4.82,6.14,6.14,0,0,1-4.18,2,1.14,1.14,0,0,1-1.12-.68,4.55,4.55,0,0,1-.32-1.91,18.76,18.76,0,0,1,.83-5,49.15,49.15,0,0,1,2.2-6.08,56,56,0,0,1,3.17-6.23,47.71,47.71,0,0,1,3.74-5.51,22.7,22.7,0,0,1,3.92-4,6.25,6.25,0,0,1,3.71-1.51,4.75,4.75,0,0,1,2.56.58,3.73,3.73,0,0,1,1.3,1.3,3.26,3.26,0,0,1,.43,1.37A2.23,2.23,0,0,1,1142.21,536.22Zm28.28-12.46a.54.54,0,0,1-.42-.41l-3.23-11.19a3.55,3.55,0,0,1-.15-.49q-.08-.33-.19-1.18a11.86,11.86,0,0,1-.1-1.71,10,10,0,0,1,.28-2,9.07,9.07,0,0,1,.8-2.19,11.52,11.52,0,0,1,4.38-4.87,7.26,7.26,0,0,1,5.51-.8,3.69,3.69,0,0,1,1.46.73,4.51,4.51,0,0,1,1.08,1.27,12.28,12.28,0,0,1,.68,1.35,9.68,9.68,0,0,1,.44,1.28q.75-.44,1.52-.8t1.78-.75a8.65,8.65,0,0,1,2-.51,5,5,0,0,1,1.8.07,4.34,4.34,0,0,1,3.53,3q.65,2.3-1.11,5.67t-6.55,6.18l-12.82,7.24A.94.94,0,0,1,1170.49,523.76Z" transform="translate(-699.92 -481.71)"/></svg>